<!DOCTYPE svg PUBLIC "-//W3C//DTD SVG 1.1//EN" "http://www.w3.org/Graphics/SVG/1.1/DTD/svg11.dtd">
<!-- Uploaded to: SVG Repo, www.svgrepo.com, Transformed by: SVG Repo Mixer Tools -->
<svg width="64px" height="64px" viewBox="-102.4 -102.4 1228.80 1228.80" class="icon" version="1.1" xmlns="http://www.w3.org/2000/svg" fill="#000000" stroke="#000000">
<g id="SVGRepo_bgCarrier" stroke-width="0">
<path transform="translate(-102.4, -102.4), scale(76.8)" fill="#22C062" d="M9.166.33a2.25 2.25 0 00-2.332 0l-5.25 3.182A2.25 2.25 0 00.5 5.436v5.128a2.25 2.25 0 001.084 1.924l5.25 3.182a2.25 2.25 0 002.332 0l5.25-3.182a2.25 2.25 0 001.084-1.924V5.436a2.25 2.25 0 00-1.084-1.924L9.166.33z" strokewidth="0"/>
</g>
<g id="SVGRepo_tracerCarrier" stroke-linecap="round" stroke-linejoin="round"/>
<g id="SVGRepo_iconCarrier">
<path d="M512 85.333333c-164.949333 0-298.666667 133.738667-298.666667 298.666667 0 164.949333 298.666667 554.666667 298.666667 554.666667s298.666667-389.717333 298.666667-554.666667c0-164.928-133.717333-298.666667-298.666667-298.666667z m0 448a149.333333 149.333333 0 1 1 0-298.666666 149.333333 149.333333 0 0 1 0 298.666666z" fill="#FFFFFF"/>
</g>
</svg>